<?xml version="1.0" encoding="UTF-8"?>
<svg width="81px" height="119px" viewBox="0 0 81 119" version="1.1" xmlns="http://www.w3.org/2000/svg" xmlns:xlink="http://www.w3.org/1999/xlink">
    <g id="All" stroke="none" stroke-width="1" fill="none" fill-rule="evenodd">
        <g id="Home---Search-bar---activated" transform="translate(-61.000000, -15.000000)" fill-rule="nonzero">
            <g id="BPAY_Logo" transform="translate(61.000000, 15.000000)">
                <g id="BPAY_GROUP_2016_PORT_BLUE_RGB">
                    <path d="M81,115.199153 C81,117.347458 79.3609959,119 77.2302905,119 L5.76970954,119 C3.63900415,119 2,117.182203 2,115.199153 L2,5.80084746 C2,3.65254237 3.63900415,2 5.76970954,2 L77.2302905,2 C79.3609959,2 81,3.65254237 81,5.80084746 L81,115.199153 Z" id="Path" fill="#183168"></path>
                    <path d="M62.2697769,85.9444444 C61.2839757,85.9444444 60.7910751,85.9444444 60.4624746,85.9444444 C59.969574,85.9444444 59.4766734,86.1097222 59.3123732,86.7708333 L58.4908722,88.4236111 L54.8762677,94.8694444 L51.2616633,88.4236111 L50.4401623,86.7708333 C50.2758621,86.1097222 49.6186613,85.9444444 49.2900609,85.9444444 C48.7971602,85.9444444 48.4685598,85.9444444 47.4827586,85.9444444 C46.4969574,85.9444444 46.8255578,86.7708333 46.8255578,86.7708333 C46.8255578,86.7708333 50.4401623,93.2166667 53.3975659,98.5055556 C53.3975659,98.5055556 53.3975659,104.786111 53.3975659,105.116667 C53.3975659,105.447222 53.5618661,105.777778 54.0547667,105.777778 L55.6977688,105.777778 C56.0263692,105.777778 56.5192698,105.777778 56.5192698,105.116667 L56.5192698,98.3402778 C59.4766734,93.0513889 63.0912779,86.6055556 63.0912779,86.6055556 C63.0912779,86.6055556 63.2555781,85.9444444 62.2697769,85.9444444 Z M25.3022312,85.9444444 L18.0730223,85.9444444 C17.4158215,85.9444444 17.4158215,86.4402778 17.4158215,86.7708333 C17.4158215,87.1013889 17.4158215,105.116667 17.4158215,105.116667 C17.4158215,105.943056 18.0730223,105.777778 18.2373225,105.777778 L20.0446247,105.777778 C20.3732252,105.777778 20.7018256,105.6125 20.7018256,105.116667 L20.7018256,98.5055556 L25.3022312,98.5055556 C28.7525355,98.5055556 31.7099391,95.6958333 31.7099391,92.0597222 C31.7099391,88.9194444 28.9168357,85.9444444 25.3022312,85.9444444 Z M25.3022312,95.5305556 L20.7018256,95.5305556 L20.7018256,89.25 L25.3022312,89.25 C27.1095335,89.25 28.4239351,90.7375 28.4239351,92.3902778 C28.4239351,94.2083333 27.1095335,95.5305556 25.3022312,95.5305556 Z M42.3894523,86.7708333 C42.0608519,86.275 41.8965517,85.9444444 41.0750507,85.9444444 L38.7748479,85.9444444 C37.9533469,85.9444444 37.7890467,86.275 37.4604462,86.7708333 C37.296146,87.2666667 30.7241379,105.116667 30.7241379,105.116667 C30.7241379,105.116667 30.3955375,105.943056 31.3813387,105.943056 C32.36714,105.943056 32.5314402,105.943056 33.0243408,105.943056 C33.5172414,105.943056 34.010142,105.777778 34.1744422,105.116667 C34.3387424,104.455556 35.3245436,101.811111 35.3245436,101.811111 L44.525355,101.811111 C44.525355,101.811111 45.5111562,104.620833 45.6754564,105.116667 C45.8397566,105.777778 46.4969574,105.943056 46.8255578,105.943056 C47.3184584,105.943056 47.4827586,105.943056 48.4685598,105.943056 C49.4543611,105.943056 49.1257606,105.116667 49.1257606,105.116667 C49.1257606,105.116667 42.5537525,87.2666667 42.3894523,86.7708333 Z M36.6389452,98.5055556 L39.9249493,89.25 L43.3752535,98.5055556 L36.6389452,98.5055556 Z M77.2210953,0 L3.77890467,0 C1.64300203,0 0,1.65277778 0,3.80138889 L0,115.198611 C0,117.347222 1.64300203,119 3.77890467,119 L77.2210953,119 C79.356998,119 81,117.181944 81,115.198611 L81,3.96666667 C81,1.81805556 79.356998,0 77.2210953,0 Z M29.2454361,29.5847222 L42.3894523,29.5847222 C45.8397566,29.5847222 48.63286,32.5597222 48.63286,36.0305556 C48.63286,39.5013889 45.8397566,42.3111111 42.3894523,42.3111111 L40.0892495,42.4763889 C38.9391481,42.4763889 38.2819473,43.3027778 38.1176471,44.2944444 L38.1176471,52.0625 C38.2819473,53.2194444 38.9391481,53.8805556 40.0892495,53.8805556 L45.6754564,53.8805556 C49.4543611,53.8805556 52.4117647,56.8555556 52.4117647,60.6569444 C52.4117647,64.1277778 49.6186613,67.1027778 46.168357,67.4333333 L30.8884381,67.4333333 C29.7383367,67.4333333 29.0811359,66.7722222 28.9168357,65.45 L28.9168357,29.5847222 L29.2454361,29.5847222 Z M5.42190669,7.4375 L5.42190669,7.4375 C5.42190669,6.44583333 6.24340771,5.61944444 7.06490872,5.61944444 C7.06490872,5.61944444 11.1724138,5.61944444 17.4158215,5.61944444 L17.4158215,17.6847222 L5.42190669,17.6847222 C5.42190669,11.4041667 5.42190669,7.4375 5.42190669,7.4375 Z M75.5780933,111.727778 C75.5780933,112.719444 75.0851927,113.711111 73.6064909,113.711111 L7.22920892,113.711111 C7.22920892,113.711111 7.06490872,113.711111 7.06490872,113.711111 C6.07910751,113.711111 5.42190669,112.884722 5.42190669,111.893056 C5.42190669,111.893056 5.42190669,60.6569444 5.42190669,29.9152778 L25.6308316,29.9152778 L17.4158215,32.8902778 L17.4158215,77.8458333 C17.4158215,79.1680556 18.0730223,79.8291667 19.2231237,79.8291667 L46.6612576,79.8291667 C56.0263692,79.4986111 63.5841785,71.7305556 63.5841785,62.3097222 C63.5841785,56.0291667 60.2981744,50.575 55.5334686,47.4347222 C58.4908722,44.7902778 60.7910751,40.3277778 60.7910751,35.8652778 C60.7910751,24.2958333 52.5760649,17.6847222 40.9107505,17.6847222 L29.5740365,17.6847222 L29.5740365,5.61944444 C48.9614604,5.61944444 73.6064909,5.61944444 73.6064909,5.61944444 C75.0851927,5.61944444 75.5780933,6.61111111 75.5780933,7.60277778 L75.5780933,111.727778 L75.5780933,111.727778 Z" id="Shape" fill="#FFFFFF"></path>
                </g>
            </g>
        </g>
    </g>
</svg>