<svg width="403" height="592" viewBox="0 0 403 592" fill="none" xmlns="http://www.w3.org/2000/svg">
<g clip-path="url(#clip0_8_25)">
<path d="M403 573.092C403 583.779 394.845 592 384.244 592H28.7057C18.1047 592 9.9502 582.957 9.9502 573.092V28.858C9.9502 18.1706 18.1047 9.94958 28.7057 9.94958H384.244C394.845 9.94958 403 18.1706 403 28.858V573.092Z" fill="#183168"/>
<path d="M309.811 427.556C304.907 427.556 302.454 427.556 300.819 427.556C298.367 427.556 295.915 428.378 295.097 431.667L291.01 439.889L273.026 471.956L255.043 439.889L250.955 431.667C250.138 428.378 246.868 427.556 245.233 427.556C242.781 427.556 241.146 427.556 236.241 427.556C231.337 427.556 232.972 431.667 232.972 431.667C232.972 431.667 250.955 463.733 265.669 490.044C265.669 490.044 265.669 521.289 265.669 522.933C265.669 524.578 266.487 526.222 268.939 526.222H277.114C278.748 526.222 281.201 526.222 281.201 522.933V489.222C295.915 462.911 313.899 430.844 313.899 430.844C313.899 430.844 314.716 427.556 309.811 427.556ZM125.886 427.556H89.9189C86.6491 427.556 86.6491 430.022 86.6491 431.667C86.6491 433.311 86.6491 522.933 86.6491 522.933C86.6491 527.044 89.9189 526.222 90.7363 526.222H99.7282C101.363 526.222 102.998 525.4 102.998 522.933V490.044H125.886C143.053 490.044 157.767 476.067 157.767 457.978C157.767 442.356 143.87 427.556 125.886 427.556ZM125.886 475.244H102.998V444H125.886C134.878 444 141.418 451.4 141.418 459.622C141.418 468.667 134.878 475.244 125.886 475.244ZM210.901 431.667C209.266 429.2 208.448 427.556 204.361 427.556H192.917C188.83 427.556 188.012 429.2 186.377 431.667C185.56 434.133 152.862 522.933 152.862 522.933C152.862 522.933 151.227 527.044 156.132 527.044C161.037 527.044 161.854 527.044 164.306 527.044C166.759 527.044 169.211 526.222 170.028 522.933C170.846 519.644 175.75 506.489 175.75 506.489H221.527C221.527 506.489 226.432 520.467 227.249 522.933C228.067 526.222 231.337 527.044 232.972 527.044C235.424 527.044 236.241 527.044 241.146 527.044C246.051 527.044 244.416 522.933 244.416 522.933C244.416 522.933 211.718 434.133 210.901 431.667ZM182.29 490.044L198.639 444L215.805 490.044H182.29ZM384.199 0H18.8012C8.17444 0 0 8.22222 0 18.9111V573.089C0 583.778 8.17444 592 18.8012 592H384.199C394.826 592 403 582.956 403 573.089V19.7333C403 9.04445 394.826 0 384.199 0ZM145.505 147.178H210.901C228.067 147.178 241.963 161.978 241.963 179.244C241.963 196.511 228.067 210.489 210.901 210.489L199.456 211.311C193.734 211.311 190.464 215.422 189.647 220.356V259C190.464 264.756 193.734 268.044 199.456 268.044H227.249C246.051 268.044 260.765 282.844 260.765 301.756C260.765 319.022 246.868 333.822 229.702 335.467H153.68C147.957 335.467 144.688 332.178 143.87 325.6V147.178H145.505ZM26.9757 37C26.9757 32.0667 31.0629 27.9556 35.1501 27.9556C35.1501 27.9556 55.5862 27.9556 86.6491 27.9556V87.9778H26.9757C26.9757 56.7333 26.9757 37 26.9757 37ZM376.024 555.822C376.024 560.756 373.572 565.689 366.215 565.689H35.9675H35.1501C30.2454 565.689 26.9757 561.578 26.9757 556.644C26.9757 556.644 26.9757 301.756 26.9757 148.822H127.521L86.6491 163.622V387.267C86.6491 393.844 89.9189 397.133 95.641 397.133H232.154C278.748 395.489 316.351 356.844 316.351 309.978C316.351 278.733 300.002 251.6 276.296 235.978C291.01 222.822 302.454 200.622 302.454 178.422C302.454 120.867 261.582 87.9778 203.544 87.9778H147.14V27.9556C243.598 27.9556 366.215 27.9556 366.215 27.9556C373.572 27.9556 376.024 32.8889 376.024 37.8222V555.822Z" fill="white"/>
</g>
<defs>
<clipPath id="clip0_8_25">
<rect width="403" height="592" fill="white"/>
</clipPath>
</defs>
</svg>
