<svg width="388" height="165" viewBox="0 0 388 165" fill="none" xmlns="http://www.w3.org/2000/svg">
<path d="M109.991 90.6415C109.991 66.7576 127.088 48.1246 149.091 48.1246C159.416 48.1246 168.219 52.1895 173.973 58.795V50.5816C173.973 50.1593 174.317 49.8158 174.739 49.8158H191.829C192.251 49.8158 192.594 50.1593 192.594 50.5816V164.234C192.594 164.657 192.251 165 191.829 165H174.739C174.317 165 173.973 164.657 173.973 164.234V122.314C168.219 128.919 159.416 132.815 149.091 132.815C127.086 132.815 109.991 114.353 109.991 90.6415ZM175.158 90.4721C175.158 75.9037 165.849 65.7414 152.138 65.7414C138.426 65.7414 129.117 75.9037 129.117 90.4721C129.117 105.041 138.595 115.203 152.138 115.203C165.68 115.203 175.158 105.041 175.158 90.4721Z" fill="white"/>
<path d="M196.325 90.6415C196.325 66.7576 213.422 48.1246 235.425 48.1246C245.749 48.1246 254.553 52.1895 260.307 58.795V49.8183H278.928V130.333C278.928 130.77 278.575 131.124 278.138 131.124H261.1C260.663 131.124 260.31 130.77 260.31 130.333V122.316C254.555 128.922 245.752 132.817 235.427 132.817C213.422 132.817 196.325 114.353 196.325 90.6415ZM261.492 90.4721C261.492 75.9037 252.183 65.7414 238.471 65.7414C224.76 65.7414 215.451 75.9037 215.451 90.4721C215.451 105.041 224.929 115.203 238.471 115.203C252.014 115.203 261.492 105.041 261.492 90.4721Z" fill="white"/>
<path d="M283.419 9.1615H300.501C300.926 9.1615 301.269 9.5054 301.269 9.92993V130.35C301.269 130.775 300.926 131.118 300.501 131.118H283.419C282.995 131.118 282.651 130.775 282.651 130.35V9.93251C282.651 9.50761 282.995 9.1615 283.419 9.1615Z" fill="white"/>
<path d="M143.22 37.2542C143.767 37.2222 144.091 36.6283 143.826 36.1518C142.551 33.869 139.129 28.1671 133.614 22.0572C130.166 18.0881 126.312 14.6344 122.078 11.7135C121.99 11.6498 121.902 11.5883 121.814 11.5246C119.081 9.66151 116.189 8.01677 113.152 6.60289C103.733 2.22134 92.8051 0 80.6752 0C69.7525 0 60.0485 1.7401 51.836 5.17428C43.6972 8.57643 37.2093 13.5545 32.5486 19.9732C32.4802 20.0664 32.4139 20.1599 32.3451 20.2557C24.4664 20.4276 17.8236 21.5517 12.5746 23.6063C6.51828 25.9774 2.6229 29.4753 0.994027 34.0041C-3.77669 47.274 12.4863 66.386 41.4653 81.5605C41.5804 81.6194 41.703 81.6489 41.8258 81.6489C42.0856 81.6489 42.341 81.5164 42.4881 81.2807L42.6695 80.9887C42.8903 80.6327 42.7921 80.1662 42.4462 79.9305C31.2902 72.3236 25.8668 61.6731 25.8668 47.3671C25.8668 37.4825 28.3173 28.891 33.1572 21.8094C33.162 21.8047 33.1667 21.7995 33.1741 21.7995C33.6083 21.7947 34.045 21.7899 34.4891 21.7899C56.0894 21.7899 75.198 25.6509 91.2892 33.263C106.485 40.455 112.98 48.2486 113.67 49.1124C113.807 49.2869 114.013 49.3922 114.234 49.4047C114.459 49.4217 114.671 49.3333 114.827 49.1765C114.827 49.1765 125.996 38.2362 143.22 37.2542ZM26.8823 24.5562C26.8823 24.5562 16.1631 45.352 26.1979 67.4928C26.1979 67.4928 8.84367 56.0518 4.56563 42.4701C0.287582 28.8888 20.6593 24.4189 26.8823 24.5562Z" fill="#FFCC00"/>
<path d="M387.592 50.5816C387.592 50.1593 387.249 49.8158 386.826 49.8158H369.735C369.312 49.8158 368.97 50.1571 368.97 50.5816V58.795C363.215 52.1895 354.411 48.1246 344.086 48.1246C322.081 48.1246 304.986 66.7576 304.986 90.6415C304.986 114.525 322.083 132.817 344.086 132.817C354.411 132.817 363.215 128.922 368.97 122.316V130.36C368.97 130.782 369.309 131.126 369.735 131.126H386.826C387.249 131.126 387.592 130.785 387.592 130.36V50.5816ZM347.136 115.2C333.596 115.2 324.117 105.038 324.117 90.4696C324.117 75.9015 333.596 65.7392 347.136 65.7392C360.68 65.7392 370.159 75.9015 370.159 90.4696C370.159 105.038 360.85 115.2 347.136 115.2Z" fill="white"/>
<path d="M66.5214 71.2908C66.5214 67.7465 69.3667 63.8016 75.5849 64.1993C85.9781 64.8646 93.2386 70.0636 95.9345 72.1229C96.3566 72.4447 96.9721 72.2606 97.144 71.7573C98.9296 66.4873 101.486 62.3241 104.677 58.0972C104.917 57.7779 104.888 57.3287 104.598 57.0563C98.0712 50.9052 89.3484 47.7361 78.705 47.7361C60.0924 47.7361 48.7546 57.2256 48.7546 72.8177C48.7546 102.306 90.889 93.4931 90.889 108.236C90.889 112.981 86.4097 116.67 78.1972 115.524C67.6572 114.051 60.9997 109.718 57.0826 106.714C56.6311 106.368 56.084 106.483 55.7875 106.972C52.9197 111.719 51.1904 114.392 47.5478 120.062C47.3123 120.428 47.2608 120.88 47.5772 121.177C55.2918 128.413 66.0037 132.473 77.8587 132.473C96.8102 132.473 108.655 122.645 108.655 106.714C108.655 76.718 66.5214 84.6836 66.5214 71.2959V71.2908Z" fill="white"/>
</svg>
