<svg width="318" height="179" viewBox="0 0 318 179" fill="none" xmlns="http://www.w3.org/2000/svg">
<path d="M102.356 94.9978C102.356 78.8711 113.901 66.2899 128.757 66.2899C135.728 66.2899 141.672 69.0346 145.558 73.4947V67.9489C145.558 67.6637 145.79 67.4318 146.075 67.4318H157.614C157.899 67.4318 158.131 67.6637 158.131 67.9489V144.688C158.131 144.974 157.899 145.206 157.614 145.206H146.075C145.79 145.206 145.558 144.974 145.558 144.688V116.383C141.672 120.843 135.728 123.474 128.757 123.474C113.899 123.474 102.356 111.008 102.356 94.9978ZM146.358 94.8834C146.358 85.0466 140.072 78.185 130.814 78.185C121.556 78.185 115.27 85.0466 115.27 94.8834C115.27 104.72 121.67 111.582 130.814 111.582C139.958 111.582 146.358 104.72 146.358 94.8834Z" fill="white"/>
<path d="M160.65 94.9978C160.65 78.8711 172.194 66.2899 187.051 66.2899C194.022 66.2899 199.966 69.0346 203.852 73.4947V67.4335H216.425V121.798C216.425 122.093 216.186 122.332 215.891 122.332H204.387C204.092 122.332 203.854 122.093 203.854 121.798V116.385C199.968 120.845 194.024 123.475 187.053 123.475C172.194 123.475 160.65 111.008 160.65 94.9978ZM204.652 94.8834C204.652 85.0466 198.366 78.185 189.108 78.185C179.85 78.185 173.564 85.0466 173.564 94.8834C173.564 104.72 179.964 111.582 189.108 111.582C198.252 111.582 204.652 104.72 204.652 94.8834Z" fill="white"/>
<path d="M219.457 39.9816H230.991C231.277 39.9816 231.509 40.2138 231.509 40.5004V121.809C231.509 122.096 231.277 122.328 230.991 122.328H219.457C219.17 122.328 218.938 122.096 218.938 121.809V40.5022C218.938 40.2153 219.17 39.9816 219.457 39.9816Z" fill="white"/>
<path d="M124.793 58.9501C125.163 58.9285 125.381 58.5275 125.202 58.2058C124.341 56.6644 122.031 52.8144 118.307 48.689C115.979 46.0089 113.377 43.677 110.518 41.7047C110.458 41.6617 110.399 41.6202 110.339 41.5772C108.494 40.3192 106.541 39.2087 104.491 38.254C98.131 35.2955 90.7524 33.7957 82.5622 33.7957C75.1871 33.7957 68.6348 34.9706 63.0896 37.2894C57.5942 39.5866 53.2135 42.9478 50.0665 47.2818C50.0203 47.3447 49.9756 47.4079 49.9292 47.4725C44.6094 47.5886 40.1241 48.3476 36.5799 49.7349C32.4906 51.3359 29.8604 53.6977 28.7605 56.7556C25.5393 65.7156 36.5202 78.6202 56.0872 88.8662C56.1649 88.906 56.2477 88.9259 56.3307 88.9259C56.506 88.9259 56.6785 88.8364 56.7778 88.6773L56.9003 88.4802C57.0494 88.2398 56.983 87.9248 56.7495 87.7656C49.2169 82.6293 45.5549 75.438 45.5549 65.7785C45.5549 59.1043 47.2095 53.3032 50.4775 48.5216C50.4807 48.5184 50.4839 48.5149 50.4889 48.5149C50.782 48.5117 51.0769 48.5085 51.3768 48.5085C65.9616 48.5085 78.8639 51.1154 89.7288 56.2552C99.9893 61.1113 104.375 66.3737 104.841 66.9569C104.933 67.0747 105.072 67.1458 105.221 67.1543C105.374 67.1657 105.516 67.1061 105.622 67.0002C105.622 67.0002 113.163 59.6132 124.793 58.9501ZM46.2406 50.3763C46.2406 50.3763 39.0029 64.4178 45.7785 79.3676C45.7785 79.3676 34.0607 71.6425 31.1721 62.472C28.2835 53.3017 42.0388 50.2835 46.2406 50.3763Z" fill="#FFCC00"/>
<path d="M289.796 67.9489C289.796 67.6637 289.564 67.4318 289.279 67.4318H277.739C277.453 67.4318 277.222 67.6622 277.222 67.9489V73.4947C273.337 69.0346 267.391 66.2899 260.42 66.2899C245.562 66.2899 234.02 78.8711 234.02 94.9978C234.02 111.124 245.564 123.475 260.42 123.475C267.391 123.475 273.337 120.845 277.222 116.385V121.816C277.222 122.101 277.451 122.333 277.739 122.333H289.279C289.564 122.333 289.796 122.103 289.796 121.816V67.9489ZM262.48 111.58C253.337 111.58 246.937 104.718 246.937 94.8817C246.937 85.0451 253.337 78.1835 262.48 78.1835C271.625 78.1835 278.025 85.0451 278.025 94.8817C278.025 104.718 271.739 111.58 262.48 111.58Z" fill="white"/>
<path d="M73.0055 81.932C73.0055 79.5389 74.9267 76.8752 79.1253 77.1437C86.1429 77.593 91.0453 81.1034 92.8656 82.4938C93.1505 82.7111 93.5662 82.5868 93.6822 82.247C94.8879 78.6886 96.6138 75.8776 98.7685 73.0235C98.9307 72.808 98.9108 72.5047 98.7156 72.3207C94.3083 68.1674 88.4186 66.0276 81.232 66.0276C68.6645 66.0276 61.0092 72.435 61.0092 82.963C61.0092 102.874 89.4588 96.9232 89.4588 106.878C89.4588 110.081 86.4343 112.573 80.8892 111.799C73.7724 110.804 69.2772 107.879 66.6323 105.85C66.3275 105.616 65.9581 105.694 65.7578 106.024C63.8215 109.229 62.6538 111.034 60.1943 114.863C60.0353 115.11 60.0005 115.415 60.2142 115.616C65.4232 120.502 72.6559 123.243 80.6606 123.243C93.4569 123.243 101.455 116.607 101.455 105.85C101.455 85.5965 73.0055 90.975 73.0055 81.9355V81.932Z" fill="white"/>
</svg>
